<svg width="27" height="29" viewBox="0 0 27 29" fill="none" xmlns="http://www.w3.org/2000/svg">
    <path d="M5.57622 28.6993C4.70207 28.6993 3.95374 28.3947 3.33123 27.7855C2.70873 27.1762 2.39748 26.4438 2.39748 25.5882V5.36601C1.94716 5.36601 1.56968 5.21693 1.26505 4.91879C0.96042 4.62064 0.808105 4.25119 0.808105 3.81045C0.808105 3.36971 0.96042 3.00027 1.26505 2.70212C1.56968 2.40397 1.94716 2.2549 2.39748 2.2549H8.75496C8.75496 1.81416 8.90728 1.44471 9.21191 1.14656C9.51654 0.848415 9.89401 0.699341 10.3443 0.699341H16.7018C17.1521 0.699341 17.5296 0.848415 17.8343 1.14656C18.1389 1.44471 18.2912 1.81416 18.2912 2.2549H24.6487C25.099 2.2549 25.4765 2.40397 25.7811 2.70212C26.0857 3.00027 26.2381 3.36971 26.2381 3.81045C26.2381 4.25119 26.0857 4.62064 25.7811 4.91879C25.4765 5.21693 25.099 5.36601 24.6487 5.36601V25.5882C24.6487 26.4438 24.3374 27.1762 23.7149 27.7855C23.0924 28.3947 22.3441 28.6993 21.4699 28.6993H5.57622ZM21.4699 5.36601H5.57622V25.5882H21.4699V5.36601ZM13.5231 17.6549L16.5429 20.6105C16.8343 20.8956 17.2051 21.0382 17.6554 21.0382C18.1058 21.0382 18.4766 20.8956 18.768 20.6105C19.0594 20.3253 19.2051 19.9623 19.2051 19.5216C19.2051 19.0808 19.0594 18.7179 18.768 18.4327L15.7482 15.4771L18.768 12.5216C19.0594 12.2364 19.2051 11.8734 19.2051 11.4327C19.2051 10.9919 19.0594 10.629 18.768 10.3438C18.4766 10.0586 18.1058 9.91601 17.6554 9.91601C17.2051 9.91601 16.8343 10.0586 16.5429 10.3438L13.5231 13.2993L10.5033 10.3438C10.2119 10.0586 9.84104 9.91601 9.39071 9.91601C8.94039 9.91601 8.56954 10.0586 8.27815 10.3438C7.98677 10.629 7.84108 10.9919 7.84108 11.4327C7.84108 11.8734 7.98677 12.2364 8.27815 12.5216L11.298 15.4771L8.27815 18.4327C7.98677 18.7179 7.84108 19.0808 7.84108 19.5216C7.84108 19.9623 7.98677 20.3253 8.27815 20.6105C8.56954 20.8956 8.94039 21.0382 9.39071 21.0382C9.84104 21.0382 10.2119 20.8956 10.5033 20.6105L13.5231 17.6549Z" fill="white"/>
    </svg>
    