<svg width="26" height="29" viewBox="0 0 26 29" fill="none" xmlns="http://www.w3.org/2000/svg">
    <path d="M2.78488 28.6993C2.0845 28.6993 1.48493 28.45 0.986172 27.9512C0.487416 27.4524 0.238037 26.8529 0.238037 26.1525C0.238037 25.4521 0.487416 24.8525 0.986172 24.3538C1.48493 23.855 2.0845 23.6057 2.78488 23.6057H23.1596C23.86 23.6057 24.4596 23.855 24.9583 24.3538C25.4571 24.8525 25.7065 25.4521 25.7065 26.1525C25.7065 26.8529 25.4571 27.4524 24.9583 27.9512C24.4596 28.45 23.86 28.6993 23.1596 28.6993H2.78488ZM4.0583 21.0588C3.6975 21.0588 3.39506 20.9368 3.15099 20.6927C2.90692 20.4486 2.78488 20.1462 2.78488 19.7854V16.8247C2.78488 16.6549 2.81672 16.4904 2.88039 16.3312C2.94406 16.1721 3.03957 16.0288 3.16691 15.9015L14.3093 4.75901L19.0847 9.53434L7.94224 20.6768C7.8149 20.8041 7.67164 20.8996 7.51246 20.9633C7.35328 21.027 7.1888 21.0588 7.01901 21.0588H4.0583ZM5.33172 18.512H6.4778L15.5191 9.53434L14.3093 8.32459L5.33172 17.3659V18.512ZM20.5173 8.13358L15.7419 3.35825L18.0341 1.06609C18.2676 0.811402 18.5647 0.689366 18.9255 0.699978C19.2863 0.710589 19.5834 0.832626 19.8169 1.06609L22.8094 4.05863C23.0429 4.29209 23.1596 4.58391 23.1596 4.9341C23.1596 5.2843 23.0429 5.58673 22.8094 5.84142L20.5173 8.13358Z" fill="white"/>
    </svg>
    